<svg fill="#A163F5" height="140" viewBox="-8 0 512 512" xmlns="http://www.w3.org/2000/svg"><path d="m312.796875 440.804688c-5.515625 0-9.980469-4.46875-9.980469-9.980469s4.46875-9.984375 9.980469-9.984375h35.320313c5.515624 0 9.984374 4.46875 9.984374 9.984375 0 5.511719-4.46875 9.980469-9.984374 9.980469zm-206.683594-194.824219c5.535157 0 10.023438 4.484375 10.023438 10.019531s-4.488281 10.023438-10.023438 10.023438c-5.535156 0-10.019531-4.488282-10.019531-10.023438s4.484375-10.019531 10.019531-10.019531zm10.023438-30.066407v-148.214843c0-13.09375 5.363281-25.007813 14.007812-33.648438 8.640625-8.644531 20.554688-14.007812 33.648438-14.007812h168.644531c13.09375 0 25.007812 5.363281 33.648438 14.007812 8.644531 8.640625 14.007812 20.554688 14.007812 33.648438v376.601562c0 13.097657-5.363281 25.007813-14.007812 33.648438-8.640626 8.644531-20.554688 14.011719-33.648438 14.011719h-168.644531c-13.097657 0-25.007813-5.367188-33.648438-14.011719-8.644531-8.640625-14.007812-20.554688-14.007812-33.648438v-148.214843c0-5.535157-4.488281-10.023438-10.023438-10.023438-5.535156 0-10.019531 4.484375-10.019531 10.023438v148.214843c0 18.628907 7.613281 35.554688 19.878906 47.820313s29.191406 19.878906 47.820313 19.878906h168.644531c18.625 0 35.554688-7.613281 47.820312-19.878906 12.265626-12.265625 19.878907-29.191406 19.878907-47.820313v-376.601562c0-18.628907-7.613281-35.554688-19.878907-47.820313-12.265624-12.265625-29.195312-19.878906-47.820312-19.878906h-168.644531c-18.628907 0-35.554688 7.613281-47.820313 19.878906s-19.878906 29.191406-19.878906 47.820313v148.214843c0 5.535157 4.484375 10.023438 10.019531 10.023438 5.535157 0 10.023438-4.488281 10.023438-10.023438zm-48.523438 76.429688c-2.355469-11.738281-3.589843-23.894531-3.589843-36.34375s1.234374-24.601562 3.589843-36.34375c2.414063-12.042969 6.011719-23.664062 10.65625-34.738281 2.140625-5.101563-.257812-10.972657-5.359375-13.113281-5.105468-2.140626-10.972656.261718-13.113281 5.363281-5.160156 12.289062-9.148437 25.195312-11.832031 38.574219-2.613282 13.023437-3.984375 26.484374-3.984375 40.257812s1.371093 27.234375 3.984375 40.257812c2.683594 13.382813 6.671875 26.289063 11.832031 38.574219 2.140625 5.101563 8.011719 7.503907 13.113281 5.363281 5.101563-2.140624 7.5-8.011718 5.359375-13.113281-4.648437-11.074219-8.242187-22.695312-10.65625-34.738281zm-43.089843 9.101562c-2.941407-14.550781-4.480469-29.738281-4.480469-45.445312 0-15.867188 1.515625-31.070312 4.453125-45.613281 3.007812-14.867188 7.523437-29.253907 13.460937-43.15625 2.160157-5.082031-.203125-10.953125-5.285156-13.113281-5.078125-2.164063-10.949219.203124-13.113281 5.285156-6.414063 15.023437-11.328125 30.714844-14.632813 47.070312-3.25 16.078125-4.925781 32.589844-4.925781 49.527344 0 16.777344 1.703125 33.285156 4.949219 49.359375 3.316406 16.390625 8.242187 32.175781 14.609375 47.203125 2.140625 5.078125 7.992187 7.460938 13.074218 5.320312 5.082032-2.140624 7.464844-7.992187 5.324219-13.074218-5.867187-13.839844-10.398437-28.34375-13.433593-43.363282zm404.09375-9.101562c2.351562-11.738281 3.589843-23.894531 3.589843-36.34375s-1.234375-24.601562-3.589843-36.34375c-2.417969-12.042969-6.011719-23.664062-10.660157-34.738281-2.140625-5.101563.261719-10.972657 5.363281-13.113281 5.101563-2.140626 10.972657.261718 13.113282 5.363281 5.15625 12.289062 9.148437 25.195312 11.832031 38.574219 2.613281 13.023437 3.980469 26.484374 3.980469 40.257812s-1.367188 27.234375-3.980469 40.257812c-2.683594 13.382813-6.675781 26.289063-11.832031 38.574219-2.140625 5.101563-8.011719 7.503907-13.113282 5.363281-5.101562-2.140624-7.503906-8.011718-5.363281-13.113281 4.648438-11.074219 8.242188-22.695312 10.660157-34.738281zm43.089843 9.101562c2.941407-14.550781 4.480469-29.738281 4.480469-45.445312 0-15.867188-1.515625-31.070312-4.453125-45.613281-3.007813-14.867188-7.527344-29.253907-13.460937-43.15625-2.164063-5.082031.203124-10.953125 5.28125-13.113281 5.082031-2.164063 10.953124.203124 13.113281 5.285156 6.417969 15.023437 11.328125 30.714844 14.636719 47.070312 3.25 16.078125 4.925781 32.589844 4.925781 49.527344 0 16.78125-1.703125 33.285156-4.953125 49.359375-3.3125 16.394531-8.238282 32.179687-14.605469 47.203125-2.140625 5.078125-7.996094 7.464844-13.074219 5.324219-5.082031-2.140625-7.464844-7.996094-5.324218-13.074219 5.867187-13.84375 10.394531-28.347656 13.433593-43.367188zm-261.234375-101.175781c-9.632812-9.632812-15.59375-22.945312-15.59375-37.644531s5.960938-28.007812 15.59375-37.640625c7.386719-7.390625 16.9375-12.617187 27.621094-14.652344v-18.914062c0-5.535157 4.484375-10.019531 10.019531-10.019531 5.535157 0 10.023438 4.484374 10.023438 10.019531v18.914062c10.679687 2.035157 20.230469 7.261719 27.621093 14.652344 9.632813 9.632813 15.59375 22.941406 15.59375 37.640625 0 5.535156-4.488281 10.023438-10.023437 10.023438-5.53125 0-10.019531-4.488282-10.019531-10.023438 0-9.164062-3.714844-17.464844-9.722656-23.472656-6.007813-6.003906-14.304688-9.71875-23.472657-9.71875s-17.46875 3.714844-23.472656 9.71875c-6.007813 6.007812-9.722656 14.308594-9.722656 23.472656 0 9.167969 3.714843 17.46875 9.722656 23.472656 6.003906 6.007813 14.304687 9.722656 23.472656 9.722656 14.699219 0 28.007813 5.957032 37.640625 15.59375 9.636719 9.632813 15.59375 22.941407 15.59375 37.640626 0 14.699218-5.957031 28.007812-15.59375 37.644531-7.386718 7.390625-16.9375 12.617187-27.617187 14.652343v18.914063c0 5.535156-4.488281 10.019531-10.023438 10.019531-5.535156 0-10.019531-4.484375-10.019531-10.019531v-18.914063c-10.683594-2.035156-20.234375-7.261718-27.621094-14.652343-9.636718-9.632813-15.59375-22.941407-15.59375-37.644531 0-5.535157 4.484375-10.019532 10.019532-10.019532 5.535156 0 10.019531 4.488282 10.019531 10.019532 0 9.167968 3.714843 17.46875 9.722656 23.472656 6.007813 6.007812 14.304687 9.722656 23.472656 9.722656s17.46875-3.714844 23.472657-9.722656c6.007812-6.003906 9.722656-14.304688 9.722656-23.472656 0-9.164063-3.714844-17.464844-9.722656-23.472657-6.007813-6.003906-14.304688-9.71875-23.472657-9.71875-14.699219 0-28.007812-5.960937-37.640625-15.59375zm-46.328125-158.273437h167.941407c7.175781 0 13.691406 2.929687 18.40625 7.644531 4.71875 4.71875 7.648437 11.234375 7.648437 18.410156v275.582031c0 7.175782-2.929687 13.6875-7.648437 18.40625-4.714844 4.71875-11.230469 7.648438-18.40625 7.648438h-167.941407c-7.175781 0-13.691406-2.929688-18.410156-7.648438s-7.644531-11.230468-7.644531-18.40625v-275.582031c0-7.175781 2.925781-13.691406 7.644531-18.410156 4.71875-4.714844 11.234375-7.644531 18.410156-7.644531zm167.941407 20.042968c1.644531 0 3.144531.679688 4.238281 1.773438 1.097656 1.09375 1.773437 2.59375 1.773437 4.238281v275.582031c0 1.640626-.679687 3.144532-1.773437 4.238282s-2.59375 1.773437-4.238281 1.773437h-167.941407c-1.644531 0-3.148437-.679687-4.242187-1.773437s-1.769532-2.597656-1.769532-4.238282v-275.582031c0-1.644531.679688-3.144531 1.769532-4.238281 1.097656-1.09375 2.597656-1.777344 4.242187-1.777344h167.941407zm-83.972657 331.75c10.226563 0 19.484375 4.148438 26.1875 10.851563 6.699219 6.699219 10.847657 15.957031 10.847657 26.183594 0 10.222656-4.148438 19.480469-10.847657 26.183593-6.703125 6.699219-15.960937 10.847657-26.1875 10.847657-10.222656 0-19.480469-4.148438-26.183593-10.847657-6.699219-6.703124-10.847657-15.960937-10.847657-26.183593 0-10.226563 4.148438-19.484375 10.847657-26.183594 6.703124-6.703125 15.960937-10.851563 26.183593-10.851563zm12.015625 25.019532c3.074219 3.074218 4.976563 7.320312 4.976563 12.015625 0 4.691406-1.902344 8.9375-4.976563 12.011719-3.074218 3.074218-7.320312 4.976562-12.015625 4.976562-4.691406 0-8.9375-1.902344-12.011719-4.976562-3.074218-3.070313-4.976562-7.320313-4.976562-12.011719 0-4.691407 1.902344-8.941407 4.976562-12.015625 3.074219-3.074219 7.320313-4.976563 12.011719-4.976563 4.695313 0 8.941407 1.902344 12.015625 4.976563zm-112.019531 21.996094c-5.511719 0-9.980469-4.46875-9.980469-9.980469s4.46875-9.984375 9.980469-9.984375h35.324219c5.511718 0 9.980468 4.46875 9.980468 9.980468 0 5.515626-4.46875 9.984376-9.980468 9.984376zm0 0" fill-rule="evenodd"/></svg>